<?xml version="1.0" standalone="no"?>
<!DOCTYPE svg PUBLIC "-//W3C//DTD SVG 20010904//EN"
 "http://www.w3.org/TR/2001/REC-SVG-20010904/DTD/svg10.dtd">
<svg version="1.0" xmlns="http://www.w3.org/2000/svg"
 width="128.000000pt" height="128.000000pt" viewBox="0 0 128.000000 128.000000"
 preserveAspectRatio="xMidYMid meet">

<g transform="translate(0.000000,128.000000) scale(0.100000,-0.100000)"
fill="#000000" stroke="none">
<path d="M102 1259 c-79 -40 -120 -139 -92 -224 12 -36 163 -235 178 -235 10
1 122 144 154 199 34 57 37 117 7 179 -44 89 -158 127 -247 81z m168 -49 c59
-42 77 -127 40 -188 -17 -28 -121 -162 -125 -162 -1 0 -26 30 -56 68 -93 116
-106 159 -69 232 39 77 139 101 210 50z"/>
<path d="M134 1181 c-36 -22 -59 -70 -50 -105 3 -14 17 -38 30 -53 20 -23 32
-28 69 -28 107 0 145 130 55 185 -41 25 -65 25 -104 1z m91 -46 c14 -13 25
-31 25 -40 0 -18 -43 -65 -60 -65 -19 0 -49 20 -60 40 -19 35 16 86 63 89 4 1
19 -10 32 -24z"/>
<path d="M570 1264 c-43 -19 -77 -50 -97 -89 -21 -40 -20 -122 2 -164 19 -38
155 -211 165 -211 10 0 146 173 165 211 22 42 23 124 2 164 -45 87 -150 127
-237 89z m123 -38 c54 -23 80 -59 85 -119 3 -33 -1 -63 -9 -78 -17 -34 -120
-159 -129 -159 -9 0 -112 125 -129 159 -21 38 -9 126 20 157 46 50 104 65 162
40z"/>
<path d="M604 1191 c-63 -27 -84 -116 -40 -164 64 -69 176 -29 176 64 0 69
-76 125 -136 100z m61 -43 c30 -14 42 -50 27 -83 -21 -45 -92 -41 -107 6 -14
42 5 74 52 88 1 1 14 -4 28 -11z"/>
<path d="M1012 1259 c-60 -30 -95 -85 -100 -157 -2 -42 2 -66 15 -90 23 -41
156 -211 165 -212 15 0 166 199 178 235 51 156 -111 296 -258 224z m148 -39
c44 -22 80 -80 80 -127 0 -16 -8 -44 -18 -63 -26 -51 -125 -171 -133 -163 -27
28 -114 143 -126 167 -19 37 -12 109 14 144 24 32 80 62 116 62 15 0 46 -9 67
-20z"/>
<path d="M1042 1180 c-90 -55 -52 -185 55 -185 37 0 49 5 69 28 32 37 39 71
23 108 -13 34 -62 69 -94 69 -11 0 -35 -9 -53 -20z m94 -44 c26 -25 26 -55 0
-81 -31 -31 -50 -32 -81 0 -32 31 -31 50 0 81 26 26 56 26 81 0z"/>
<path d="M87 823 c-4 -3 -7 -23 -7 -43 0 -24 -7 -43 -20 -55 -18 -16 -20 -31
-20 -142 0 -110 -2 -125 -20 -143 -29 -29 -25 -50 20 -118 87 -130 232 -238
388 -290 67 -22 94 -26 212 -26 118 0 145 4 212 26 156 52 301 160 388 290 45
68 49 89 20 118 -18 18 -20 33 -20 143 0 110 -2 126 -19 142 -12 10 -21 33
-23 58 -2 30 -8 43 -20 45 -14 3 -17 -6 -20 -45 -3 -41 -6 -48 -25 -51 -16 -2
-23 2 -23 12 0 9 -8 16 -20 16 -15 0 -20 -7 -20 -25 0 -20 -7 -26 -42 -36 -50
-13 -78 -35 -78 -61 0 -15 -8 -18 -60 -18 -54 0 -60 2 -60 21 0 39 -19 59 -55
59 -28 0 -35 4 -35 20 0 13 -7 20 -20 20 -13 0 -20 -7 -20 -20 0 -13 -7 -20
-20 -20 -17 0 -20 7 -20 40 0 33 -3 40 -20 40 -17 0 -20 -7 -20 -40 0 -33 -3
-40 -20 -40 -13 0 -20 7 -20 20 0 13 -7 20 -20 20 -13 0 -20 -7 -20 -20 0 -16
-7 -20 -35 -20 -36 0 -55 -20 -55 -59 0 -19 -6 -21 -60 -21 -52 0 -60 3 -60
18 0 26 -28 48 -77 61 -36 10 -43 16 -43 36 0 18 -5 25 -20 25 -12 0 -20 -7
-20 -16 0 -10 -7 -14 -22 -12 -20 3 -23 10 -26 51 -3 44 -16 59 -35 40z m129
-156 c73 -24 96 -47 46 -47 -42 0 -51 -16 -54 -95 l-3 -70 -60 0 -60 0 -3 109
c-1 61 0 116 3 124 6 16 29 12 131 -21z m979 -92 l0 -120 -60 0 -60 0 -3 70
c-3 79 -13 95 -53 95 -29 0 -38 13 -19 25 19 12 165 54 180 52 12 -2 15 -23
15 -122z m-415 -20 l0 -105 -140 0 -140 0 0 105 0 105 140 0 140 0 0 -105z
m-330 -40 l0 -65 -100 0 -100 0 0 65 0 65 100 0 100 0 0 -65z m580 0 l0 -65
-100 0 -100 0 0 65 0 65 100 0 100 0 0 -65z m-622 -122 c-3 -15 -16 -18 -83
-21 -88 -3 -115 -17 -115 -60 0 -14 7 -34 17 -44 14 -16 33 -18 158 -18 113 0
144 -3 148 -14 8 -20 -2 -26 -40 -26 -37 0 -83 -36 -83 -65 0 -20 44 -65 65
-65 8 0 15 -4 15 -10 0 -15 -19 -12 -96 19 -86 34 -165 85 -233 152 -48 48
-121 144 -121 161 0 5 84 8 186 8 171 0 185 -1 182 -17z m332 3 c0 -7 9 -25
20 -39 20 -26 25 -26 143 -29 107 -3 122 -5 125 -20 3 -16 -6 -18 -75 -18 -86
0 -119 -14 -125 -53 -3 -19 -10 -23 -64 -27 -69 -6 -104 -28 -104 -66 0 -23
42 -64 66 -64 23 0 16 -27 -8 -34 -29 -7 -126 -8 -153 0 -11 3 -27 20 -35 37
-8 18 -24 34 -35 36 -60 10 -48 51 16 51 28 0 42 6 53 22 21 30 20 47 -6 75
-21 22 -28 23 -165 23 -132 0 -144 1 -141 18 3 14 16 17 83 20 87 3 115 17
115 59 l0 23 145 0 c116 0 145 -3 145 -14z m500 6 c0 -16 -70 -110 -120 -159
-68 -68 -146 -120 -234 -154 -88 -35 -102 -35 -110 -5 -4 17 -17 28 -41 36
-63 21 -37 47 50 52 58 3 61 4 78 41 l19 37 76 0 c84 0 112 14 112 58 0 54
-21 62 -157 62 -67 0 -123 2 -123 4 0 2 -3 11 -6 20 -5 14 18 16 225 16 127 0
231 -3 231 -8z"/>
<path d="M120 601 c0 -16 6 -21 26 -21 33 0 30 33 -4 38 -17 3 -22 -2 -22 -17z"/>
<path d="M127 534 c-16 -16 -6 -34 19 -34 19 0 25 5 22 17 -3 19 -29 29 -41
17z"/>
<path d="M1117 613 c-16 -15 -6 -33 18 -33 18 0 25 5 25 20 0 20 -28 28 -43
13z"/>
<path d="M1117 534 c-16 -16 -6 -34 19 -34 19 0 25 5 22 17 -3 19 -29 29 -41
17z"/>
<path d="M540 600 c0 -13 7 -20 20 -20 13 0 20 7 20 20 0 13 -7 20 -20 20 -13
0 -20 -7 -20 -20z"/>
<path d="M620 600 c0 -13 7 -20 20 -20 13 0 20 7 20 20 0 13 -7 20 -20 20 -13
0 -20 -7 -20 -20z"/>
<path d="M700 600 c0 -13 7 -20 20 -20 13 0 20 7 20 20 0 13 -7 20 -20 20 -13
0 -20 -7 -20 -20z"/>
<path d="M540 520 c0 -13 7 -20 20 -20 13 0 20 7 20 20 0 13 -7 20 -20 20 -13
0 -20 -7 -20 -20z"/>
<path d="M620 520 c0 -13 7 -20 20 -20 13 0 20 7 20 20 0 13 -7 20 -20 20 -13
0 -20 -7 -20 -20z"/>
<path d="M700 520 c0 -13 7 -20 20 -20 13 0 20 7 20 20 0 13 -7 20 -20 20 -13
0 -20 -7 -20 -20z"/>
<path d="M290 520 c0 -13 7 -20 20 -20 13 0 20 7 20 20 0 13 -7 20 -20 20 -13
0 -20 -7 -20 -20z"/>
<path d="M370 520 c0 -13 7 -20 20 -20 13 0 20 7 20 20 0 13 -7 20 -20 20 -13
0 -20 -7 -20 -20z"/>
<path d="M870 520 c0 -13 7 -20 20 -20 13 0 20 7 20 20 0 13 -7 20 -20 20 -13
0 -20 -7 -20 -20z"/>
<path d="M950 520 c0 -13 7 -20 20 -20 13 0 20 7 20 20 0 13 -7 20 -20 20 -13
0 -20 -7 -20 -20z"/>
</g>
</svg>
